<svg xmlns="http://www.w3.org/2000/svg" width="64" height="64" viewBox="0 0 64 64" fill="none">

  <defs>
    <linearGradient id="metric-rc-g" x1="10" y1="8" x2="56" y2="58" gradientUnits="userSpaceOnUse">
      <stop stop-color="#38BDF8"/><stop offset="0.54" stop-color="#6D5EF6"/><stop offset="1" stop-color="#8B5CF6"/>
    </linearGradient>
    <linearGradient id="metric-rc-accent" x1="14" y1="10" x2="52" y2="54" gradientUnits="userSpaceOnUse">
      <stop stop-color="#60A5FA"/><stop offset="1" stop-color="#8B5CF6"/>
    </linearGradient>
    <filter id="metric-rc-s" x="-40%" y="-40%" width="180%" height="180%" color-interpolation-filters="sRGB"><feDropShadow dx="0" dy="5" stdDeviation="5" flood-color="#4F46E5" flood-opacity="0.12"/></filter>
  </defs>

  <rect x="7" y="7" width="50" height="50" rx="17" fill="#EEF2FF" fill-opacity="0.68"/>
  <g filter="url(#metric-rc-s)" stroke-linecap="round" stroke-linejoin="round">
    <path d="M20 20.5C20 18.3 21.8 16.5 24 16.5H43C45.2 16.5 47 18.3 47 20.5V27.5C47 29.7 45.2 31.5 43 31.5H24C21.8 31.5 20 29.7 20 27.5V20.5Z" fill="white" fill-opacity="0.68" stroke="url(#metric-rc-g)" stroke-width="2.8"/>
    <path d="M17 34C17 31.8 18.8 30 21 30H40C42.2 30 44 31.8 44 34V41C44 43.2 42.2 45 40 45H21C18.8 45 17 43.2 17 41V34Z" fill="white" fill-opacity="0.55" stroke="#8B5CF6" stroke-width="2.7"/>
    <path d="M26 23.8H39M23 37.3H36" stroke="#475569" stroke-opacity="0.62" stroke-width="2.3"/>
    <path d="M47 23.8H50.5C52.4 23.8 54 25.4 54 27.3V37.7C54 39.6 52.4 41.2 50.5 41.2H44" stroke="#38BDF8" stroke-width="2.5"/>
    <circle cx="20" cy="23.8" r="3.2" fill="#EEF2FF" stroke="#38BDF8" stroke-width="2"/>
    <circle cx="17" cy="37.3" r="3.2" fill="#EEF2FF" stroke="#8B5CF6" stroke-width="2"/>
    <circle cx="54" cy="32.5" r="2.7" fill="#EEF2FF" stroke="#6D5EF6" stroke-width="1.8"/>
  </g>
</svg>
