<svg xmlns="http://www.w3.org/2000/svg" width="64" height="64" viewBox="0 0 64 64" fill="none">

  <defs>
    <linearGradient id="metric-issues-g" x1="10" y1="8" x2="56" y2="58" gradientUnits="userSpaceOnUse">
      <stop stop-color="#38BDF8"/><stop offset="0.54" stop-color="#6D5EF6"/><stop offset="1" stop-color="#8B5CF6"/>
    </linearGradient>
    <linearGradient id="metric-issues-accent" x1="14" y1="10" x2="52" y2="54" gradientUnits="userSpaceOnUse">
      <stop stop-color="#60A5FA"/><stop offset="1" stop-color="#8B5CF6"/>
    </linearGradient>
    <filter id="metric-issues-s" x="-40%" y="-40%" width="180%" height="180%" color-interpolation-filters="sRGB"><feDropShadow dx="0" dy="5" stdDeviation="5" flood-color="#4F46E5" flood-opacity="0.12"/></filter>
  </defs>

  <rect x="7" y="7" width="50" height="50" rx="17" fill="#EEF2FF" fill-opacity="0.68"/>
  <g filter="url(#metric-issues-s)" stroke-linecap="round" stroke-linejoin="round">
    <path d="M18 22C18 19.8 19.8 18 22 18H42C44.2 18 46 19.8 46 22V27.8C43.7 28.4 42 30.5 42 33C42 35.5 43.7 37.6 46 38.2V44C46 46.2 44.2 48 42 48H22C19.8 48 18 46.2 18 44V38.2C20.3 37.6 22 35.5 22 33C22 30.5 20.3 28.4 18 27.8V22Z" fill="white" fill-opacity="0.72" stroke="url(#metric-issues-g)" stroke-width="3"/>
    <path d="M27 27.5H37M27 38.5H37" stroke="#475569" stroke-opacity="0.62" stroke-width="2.4"/>
    <circle cx="32" cy="33" r="5.3" stroke="#6D5EF6" stroke-width="2.7"/>
    <path d="M28.2 29.1l-2.5-2.5M35.8 29.1l2.5-2.5M28.2 36.9l-2.5 2.5M35.8 36.9l2.5 2.5" stroke="#38BDF8" stroke-width="2.2"/>
    <path d="M32 30.2v5.6" stroke="#8B5CF6" stroke-width="2.2"/>
    <circle cx="50" cy="18" r="3.2" fill="#EEF2FF" stroke="#6D5EF6" stroke-width="2"/>
  </g>
</svg>
