<svg xmlns="http://www.w3.org/2000/svg" width="24" height="24" viewBox="0 0 24 24" fill="none" aria-hidden="true">
  <defs>
    <linearGradient id="risk-next-event-mini-primary" x1="4" y1="3" x2="21" y2="22" gradientUnits="userSpaceOnUse">
      <stop stop-color="#38BDF8"/>
      <stop offset="0.52" stop-color="#6D5EF6"/>
      <stop offset="1" stop-color="#8B5CF6"/>
    </linearGradient>
    <linearGradient id="risk-next-event-mini-accent" x1="5" y1="4" x2="20" y2="21" gradientUnits="userSpaceOnUse">
      <stop stop-color="#38BDF8"/>
      <stop offset="1" stop-color="#8B5CF6"/>
    </linearGradient>
    <filter id="risk-next-event-mini-shadow" x="-30%" y="-30%" width="160%" height="160%" color-interpolation-filters="sRGB">
      <feDropShadow dx="0" dy="1.2" stdDeviation="1.6" flood-color="#4F46E5" flood-opacity="0.12"/>
    </filter>
  </defs>
  <rect x="1.75" y="1.75" width="20.5" height="20.5" rx="7" fill="#EEF2FF" fill-opacity="0.72"/>
  <g filter="url(#risk-next-event-mini-shadow)" stroke-linecap="round" stroke-linejoin="round">
    <path d="M8 5.35H16" stroke="url(#risk-next-event-mini-primary)" stroke-width="1.75"/>
    <path d="M8 18.65H16" stroke="url(#risk-next-event-mini-primary)" stroke-width="1.75"/>
    <path d="M8.85 5.8C8.85 8.6 10.4 10.3 12 12C13.6 10.3 15.15 8.6 15.15 5.8" fill="white" fill-opacity="0.72"/>
    <path d="M8.85 18.2C8.85 15.4 10.4 13.7 12 12C13.6 13.7 15.15 15.4 15.15 18.2" fill="white" fill-opacity="0.72"/>
    <path d="M8.85 5.8C8.85 8.6 10.4 10.3 12 12C13.6 10.3 15.15 8.6 15.15 5.8" stroke="url(#risk-next-event-mini-primary)" stroke-width="1.65"/>
    <path d="M8.85 18.2C8.85 15.4 10.4 13.7 12 12C13.6 13.7 15.15 15.4 15.15 18.2" stroke="url(#risk-next-event-mini-primary)" stroke-width="1.65"/>
    <path d="M10.35 8H13.65" stroke="url(#risk-next-event-mini-accent)" stroke-width="1.25"/>
    <path d="M12 11.1V12.9" stroke="#8B5CF6" stroke-opacity="0.78" stroke-width="1.15"/>
    <path d="M10.55 16H13.45" stroke="url(#risk-next-event-mini-accent)" stroke-width="1.25"/>
    <circle cx="17" cy="7.1" r="1.25" fill="#EFF6FF" stroke="#60A5FA" stroke-width="0.95"/>
  </g>
</svg>
