<svg xmlns="http://www.w3.org/2000/svg" width="64" height="64" viewBox="0 0 64 64" fill="none">

  <defs>
    <linearGradient id="metric-features-g" x1="10" y1="8" x2="56" y2="58" gradientUnits="userSpaceOnUse">
      <stop stop-color="#38BDF8"/><stop offset="0.54" stop-color="#6D5EF6"/><stop offset="1" stop-color="#8B5CF6"/>
    </linearGradient>
    <linearGradient id="metric-features-accent" x1="14" y1="10" x2="52" y2="54" gradientUnits="userSpaceOnUse">
      <stop stop-color="#60A5FA"/><stop offset="1" stop-color="#8B5CF6"/>
    </linearGradient>
    <filter id="metric-features-s" x="-40%" y="-40%" width="180%" height="180%" color-interpolation-filters="sRGB"><feDropShadow dx="0" dy="5" stdDeviation="5" flood-color="#4F46E5" flood-opacity="0.12"/></filter>
  </defs>

  <rect x="7" y="7" width="50" height="50" rx="17" fill="#EEF2FF" fill-opacity="0.68"/>
  <g filter="url(#metric-features-s)" stroke-linecap="round" stroke-linejoin="round">
    <path d="M19 20.5C19 18.6 20.6 17 22.5 17H29.5C31.4 17 33 18.6 33 20.5V27.5C33 29.4 31.4 31 29.5 31H22.5C20.6 31 19 29.4 19 27.5V20.5Z" fill="white" fill-opacity="0.70" stroke="url(#metric-features-g)" stroke-width="2.8"/>
    <path d="M37 20.5C37 18.6 38.6 17 40.5 17H43.5C45.4 17 47 18.6 47 20.5V27.5C47 29.4 45.4 31 43.5 31H40.5C38.6 31 37 29.4 37 27.5V20.5Z" fill="white" fill-opacity="0.55" stroke="#8B5CF6" stroke-width="2.6"/>
    <path d="M19 38.5C19 36.6 20.6 35 22.5 35H25.5C27.4 35 29 36.6 29 38.5V43.5C29 45.4 27.4 47 25.5 47H22.5C20.6 47 19 45.4 19 43.5V38.5Z" fill="white" fill-opacity="0.55" stroke="#38BDF8" stroke-width="2.6"/>
    <path d="M33 38.5C33 36.6 34.6 35 36.5 35H43.5C45.4 35 47 36.6 47 38.5V43.5C47 45.4 45.4 47 43.5 47H36.5C34.6 47 33 45.4 33 43.5V38.5Z" fill="white" fill-opacity="0.70" stroke="url(#metric-features-g)" stroke-width="2.8"/>
    <path d="M25.8 24H26.2M41.8 24H42.2M23.8 41H24.2M39.8 41H40.2" stroke="#475569" stroke-opacity="0.68" stroke-width="3.2"/>
    <path d="M32.5 31.5l3 3M31.5 35.5l-2.5 2.5" stroke="#475569" stroke-opacity="0.45" stroke-width="2"/>
  </g>
</svg>
