<svg xmlns="http://www.w3.org/2000/svg" width="600" height="320" viewBox="0 0 600 320" fill="none">

  <defs>
    <linearGradient id="optiona-pattern-grad-main" x1="0" y1="0" x2="1" y2="1">
      <stop offset="0" stop-color="#38BDF8"/>
      <stop offset="0.48" stop-color="#6D5EF6"/>
      <stop offset="1" stop-color="#8B5CF6"/>
    </linearGradient>
    <radialGradient id="optiona-pattern-glow" cx="50%" cy="50%" r="60%">
      <stop offset="0" stop-color="#8B5CF6" stop-opacity="0.24"/>
      <stop offset="0.6" stop-color="#6D5EF6" stop-opacity="0.10"/>
      <stop offset="1" stop-color="#6D5EF6" stop-opacity="0"/>
    </radialGradient>
    <filter id="optiona-pattern-soft-shadow" x="-50%" y="-50%" width="200%" height="200%" color-interpolation-filters="sRGB">
      <feDropShadow dx="0" dy="6" stdDeviation="7" flood-color="#4F46E5" flood-opacity="0.10"/>
    </filter>
  </defs>
  <rect width="600" height="320" fill="transparent"/>
  <rect x="18" y="18" width="564" height="284" rx="28" fill="white" fill-opacity="0.52" stroke="#6D5EF6" stroke-opacity="0.14"/>
  <rect x="36" y="40" width="528" height="240" rx="22" fill="#F5F3FF" fill-opacity="0.54" stroke="#CBD5E1" stroke-opacity="0.40"/>
  <g opacity="0.50" stroke="#CBD5E1" stroke-width="1">
    <path d="M68 80H532"/><path d="M68 120H532"/><path d="M68 160H532"/><path d="M68 200H532"/><path d="M68 240H532"/>
    <path d="M108 64V256"/><path d="M164 64V256"/><path d="M220 64V256"/><path d="M276 64V256"/><path d="M332 64V256"/><path d="M388 64V256"/><path d="M444 64V256"/><path d="M500 64V256"/>
  </g>
  <ellipse cx="318" cy="164" rx="190" ry="96" fill="url(#optiona-pattern-glow)" opacity="0.48"/>
  <g><path d="M128 104L162 132" stroke="url(#optiona-pattern-grad-main)" stroke-opacity="0.13" stroke-width="2" stroke-linecap="round"/><path d="M128 104L116 158" stroke="url(#optiona-pattern-grad-main)" stroke-opacity="0.13" stroke-width="2" stroke-linecap="round"/><path d="M128 104L196 104" stroke="url(#optiona-pattern-grad-main)" stroke-opacity="0.13" stroke-width="2" stroke-linecap="round"/><path d="M162 132L116 158" stroke="url(#optiona-pattern-grad-main)" stroke-opacity="0.09" stroke-width="2" stroke-linecap="round"/><path d="M430 84L486 112" stroke="url(#optiona-pattern-grad-main)" stroke-opacity="0.13" stroke-width="2" stroke-linecap="round"/><path d="M430 84L452 152" stroke="url(#optiona-pattern-grad-main)" stroke-opacity="0.13" stroke-width="2" stroke-linecap="round"/><path d="M430 84L520 164" stroke="url(#optiona-pattern-grad-main)" stroke-opacity="0.13" stroke-width="2" stroke-linecap="round"/><path d="M486 112L452 152" stroke="url(#optiona-pattern-grad-main)" stroke-opacity="0.09" stroke-width="2" stroke-linecap="round"/><path d="M256 230L314 210" stroke="url(#optiona-pattern-grad-main)" stroke-opacity="0.13" stroke-width="2" stroke-linecap="round"/><path d="M256 230L344 250" stroke="url(#optiona-pattern-grad-main)" stroke-opacity="0.13" stroke-width="2" stroke-linecap="round"/></g>
  <g filter="url(#optiona-pattern-soft-shadow)"><circle cx="128" cy="104" r="18" fill="#6D5EF6" fill-opacity="0.05"/><circle cx="128" cy="104" r="6" fill="#6D5EF6" fill-opacity="0.60"/><circle cx="162" cy="132" r="17" fill="#38BDF8" fill-opacity="0.05"/><circle cx="162" cy="132" r="5" fill="#38BDF8" fill-opacity="0.60"/><circle cx="116" cy="158" r="18" fill="#8B5CF6" fill-opacity="0.05"/><circle cx="116" cy="158" r="6" fill="#8B5CF6" fill-opacity="0.60"/><circle cx="196" cy="104" r="17" fill="#A78BFA" fill-opacity="0.05"/><circle cx="196" cy="104" r="5" fill="#A78BFA" fill-opacity="0.60"/><circle cx="430" cy="84" r="18" fill="#38BDF8" fill-opacity="0.05"/><circle cx="430" cy="84" r="6" fill="#38BDF8" fill-opacity="0.60"/><circle cx="486" cy="112" r="17" fill="#8B5CF6" fill-opacity="0.05"/><circle cx="486" cy="112" r="5" fill="#8B5CF6" fill-opacity="0.60"/><circle cx="452" cy="152" r="18" fill="#A78BFA" fill-opacity="0.05"/><circle cx="452" cy="152" r="6" fill="#A78BFA" fill-opacity="0.60"/><circle cx="520" cy="164" r="17" fill="#6D5EF6" fill-opacity="0.05"/><circle cx="520" cy="164" r="5" fill="#6D5EF6" fill-opacity="0.60"/><circle cx="256" cy="230" r="18" fill="#8B5CF6" fill-opacity="0.05"/><circle cx="256" cy="230" r="6" fill="#8B5CF6" fill-opacity="0.60"/><circle cx="314" cy="210" r="17" fill="#A78BFA" fill-opacity="0.05"/><circle cx="314" cy="210" r="5" fill="#A78BFA" fill-opacity="0.60"/><circle cx="344" cy="250" r="18" fill="#6D5EF6" fill-opacity="0.05"/><circle cx="344" cy="250" r="6" fill="#6D5EF6" fill-opacity="0.60"/><circle cx="86" cy="228" r="3.3" fill="#6D5EF6" fill-opacity="0.34"/><circle cx="524" cy="234" r="3.3" fill="#38BDF8" fill-opacity="0.34"/><circle cx="300" cy="88" r="3.3" fill="#8B5CF6" fill-opacity="0.34"/><circle cx="374" cy="132" r="3.3" fill="#A78BFA" fill-opacity="0.34"/><circle cx="226" cy="82" r="3.3" fill="#38BDF8" fill-opacity="0.34"/><circle cx="480" cy="230" r="3.3" fill="#6D5EF6" fill-opacity="0.34"/></g>
  <g opacity="0.88"><path d="M38 66V40H64M562 66V40H536M38 254v26h26M562 254v26h-26" stroke="#6D5EF6" stroke-opacity="0.32" stroke-width="2.2" stroke-linecap="round"/></g>
  <g opacity="0.25" stroke="#6D5EF6" stroke-width="1.6" stroke-linecap="round">
    <path d="M78 62h88"/><path d="M434 258h80"/>
    <path d="M74 258h42"/><path d="M474 62h42"/>
  </g>
</svg>