<svg xmlns="http://www.w3.org/2000/svg" width="96" height="96" viewBox="0 0 96 96" fill="none">
  <defs>
    <linearGradient id="optiona-status-g" x1="10" y1="8" x2="56" y2="58" gradientUnits="userSpaceOnUse">
      <stop stop-color="#38BDF8"/><stop offset="0.54" stop-color="#6D5EF6"/><stop offset="1" stop-color="#8B5CF6"/>
    </linearGradient>
    <linearGradient id="optiona-status-riskg" x1="14" y1="8" x2="54" y2="58" gradientUnits="userSpaceOnUse">
      <stop stop-color="#F43F5E"/><stop offset="1" stop-color="#F59E0B"/>
    </linearGradient>
    <filter id="optiona-status-s" x="-40%" y="-40%" width="180%" height="180%" color-interpolation-filters="sRGB"><feDropShadow dx="0" dy="5" stdDeviation="5" flood-color="#4F46E5" flood-opacity="0.12"/></filter>
  </defs>
  <rect width="96" height="96" fill="transparent"/>
  <g filter="url(#optiona-status-s)" stroke-linecap="round" stroke-linejoin="round">
    <ellipse cx="48" cy="75" rx="26" ry="7" fill="#4F46E5" fill-opacity="0.10"/>
    <path d="M48 12L70 20V38.2C70 52.7 61.6 63.4 48 70C34.4 63.4 26 52.7 26 38.2V20L48 12Z" fill="#EEF2FF" stroke="url(#optiona-status-g)" stroke-width="4"/>
    <path d="M48 27v18" stroke="url(#optiona-status-riskg)" stroke-width="4.5" stroke-linecap="round"/>
    <circle cx="48" cy="55" r="3.8" fill="#F43F5E"/>
    <path d="M30 22L48 15.5L66 22" stroke="white" stroke-opacity="0.75" stroke-width="2" stroke-linecap="round"/>
    <circle cx="67" cy="26" r="9" fill="#FFE4E6" stroke="#F43F5E" stroke-width="2"/>
    <path d="M67 22.5v6" stroke="#F43F5E" stroke-width="2.2" stroke-linecap="round"/><circle cx="67" cy="32" r="1.6" fill="#F43F5E"/>

  </g>
</svg>